<svg xmlns="http://www.w3.org/2000/svg" xmlns:xlink="http://www.w3.org/1999/xlink" width="1920" zoomAndPan="magnify" viewBox="0 0 1440 809.999993" height="1080" preserveAspectRatio="xMidYMid meet" version="1.0"><defs><clipPath id="ff4d88a95f"><path d="M 2 443 L 313 443 L 313 746 L 2 746 Z M 2 443 " clip-rule="nonzero"/></clipPath><clipPath id="17ca4a1759"><path d="M -22.605469 516.265625 L 184.796875 411.191406 L 331.222656 700.21875 L 123.816406 805.289062 Z M -22.605469 516.265625 " clip-rule="nonzero"/></clipPath><clipPath id="ee8aa23b1d"><path d="M -22.605469 516.265625 L 184.796875 411.191406 L 331.222656 700.21875 L 123.816406 805.289062 Z M -22.605469 516.265625 " clip-rule="nonzero"/></clipPath><clipPath id="a2899c83a5"><path d="M 55 593 L 107 593 L 107 650 L 55 650 Z M 55 593 " clip-rule="nonzero"/></clipPath><clipPath id="7483988a8a"><path d="M -22.605469 516.265625 L 184.796875 411.191406 L 331.222656 700.21875 L 123.816406 805.289062 Z M -22.605469 516.265625 " clip-rule="nonzero"/></clipPath><clipPath id="73a84311eb"><path d="M -22.605469 516.265625 L 184.796875 411.191406 L 331.222656 700.21875 L 123.816406 805.289062 Z M -22.605469 516.265625 " clip-rule="nonzero"/></clipPath><clipPath id="4c0f1e6009"><path d="M 257 637 L 306 637 L 306 691 L 257 691 Z M 257 637 " clip-rule="nonzero"/></clipPath><clipPath id="7ee86efcc5"><path d="M -22.605469 516.265625 L 184.796875 411.191406 L 331.222656 700.21875 L 123.816406 805.289062 Z M -22.605469 516.265625 " clip-rule="nonzero"/></clipPath><clipPath id="1dd25071b7"><path d="M -22.605469 516.265625 L 184.796875 411.191406 L 331.222656 700.21875 L 123.816406 805.289062 Z M -22.605469 516.265625 " clip-rule="nonzero"/></clipPath><clipPath id="8395f68fc3"><path d="M 1016 58 L 1296 58 L 1296 376 L 1016 376 Z M 1016 58 " clip-rule="nonzero"/></clipPath><clipPath id="5447effec0"><path d="M 1062.683594 14.898438 L 1335.824219 93.585938 L 1246.136719 404.921875 L 972.992188 326.238281 Z M 1062.683594 14.898438 " clip-rule="nonzero"/></clipPath><clipPath id="19751a76e7"><path d="M 1062.683594 14.898438 L 1335.824219 93.585938 L 1246.136719 404.921875 L 972.992188 326.238281 Z M 1062.683594 14.898438 " clip-rule="nonzero"/></clipPath></defs><rect x="-144" width="1728" fill="#ffffff" y="-80.999999" height="971.999992" fill-opacity="1"/><rect x="-144" width="1728" fill="#ffd5a5" y="-80.999999" height="971.999992" fill-opacity="1"/><path fill="#ffffff" d="M 1240.542969 296.035156 C 1180.597656 181.65625 1073.304688 79.871094 940.035156 67.804688 C 868.679688 61.375 797.851562 80.265625 727.675781 90.496094 C 657.761719 100.726562 595.195312 91.9375 528.5625 69.902344 C 466.78125 49.570312 403.820312 23.730469 337.710938 24.386719 C 277.507812 24.910156 219.921875 49.964844 181.097656 96.398438 C 179 98.890625 177.03125 101.515625 175.0625 104.007812 C 94.394531 146.898438 44.550781 240.160156 41.664062 334.730469 C 37.992188 455.667969 102.660156 567.949219 198.9375 638.125 C 245.371094 671.964844 300.066406 695.050781 356.863281 703.707031 C 423.367188 713.808594 489.210938 701.476562 554.402344 688.359375 C 621.953125 674.71875 692.261719 659.898438 759.8125 681.800781 C 820.410156 701.476562 872.222656 741.484375 931.117188 765.488281 C 1048.382812 813.363281 1172.335938 762.734375 1241.59375 660.683594 C 1315.964844 551.289062 1299.175781 408.183594 1240.542969 296.035156 Z M 1240.542969 296.035156 " fill-opacity="1" fill-rule="nonzero"/><g clip-path="url(#ff4d88a95f)"><g clip-path="url(#17ca4a1759)"><g clip-path="url(#ee8aa23b1d)"><path fill="#7cc8aa" d="M 76.921875 620.542969 C 83.738281 621.726562 88.257812 625.015625 90.476562 630.410156 C 88.515625 627.292969 85.792969 624.652344 82.492188 622.78125 C 80.71875 621.78125 78.847656 621.035156 76.921875 620.542969 Z M 91.898438 636.230469 C 92.023438 637.335938 92.082031 638.503906 92.082031 639.726562 C 92.082031 639.199219 92.0625 638.675781 92.027344 638.152344 C 91.984375 637.5 91.9375 636.859375 91.898438 636.230469 Z M 91.558594 630.617188 C 92.839844 633.464844 93.617188 636.882812 93.886719 640.875 C 93.6875 637.941406 92.917969 635.125 91.667969 632.558594 C 91.628906 631.894531 91.59375 631.25 91.558594 630.617188 Z M 288.992188 655.046875 C 287 657.042969 285.007812 658.644531 283.015625 659.859375 L 283.554688 659.019531 L 283.550781 659.023438 C 285.550781 657.976562 287.382812 656.636719 288.988281 655.046875 Z M 67.570312 470.597656 C 65.675781 471.554688 63.761719 472.761719 61.816406 474.214844 C 53.753906 480.242188 35.816406 499.683594 7.996094 532.539062 C -0.0625 542.058594 1.117188 556.308594 10.640625 564.367188 C 17.78125 570.414062 27.59375 571.253906 35.449219 567.273438 C 38.0625 565.953125 40.457031 564.09375 42.46875 561.71875 C 46.578125 556.867188 50.425781 552.351562 54.011719 548.175781 L 53.945312 550.121094 L 46.429688 610.773438 C 46.398438 611.054688 46.367188 611.332031 46.34375 611.613281 C 45.828125 617.628906 46.015625 627.28125 46.914062 640.570312 C 47.113281 653.761719 52.265625 661.65625 62.363281 664.253906 L 62.363281 664.257812 C 65.410156 665.152344 68.96875 665.464844 73.035156 665.1875 C 76.167969 664.972656 79.070312 664.191406 81.738281 662.839844 C 85.292969 661.035156 88.433594 658.222656 91.164062 654.398438 C 94.429688 649.824219 101.464844 637.382812 112.277344 617.082031 C 112.59375 616.488281 112.882812 615.878906 113.144531 615.257812 C 115.527344 609.625 121.601562 597.527344 131.371094 578.972656 L 108.4375 718.460938 C 107.085938 726.695312 110.386719 735.007812 117.015625 740.070312 C 125.167969 746.292969 133.074219 747.460938 140.738281 743.578125 C 144.351562 741.75 147.910156 738.792969 151.414062 734.71875 C 152.042969 733.988281 152.679688 733.203125 153.328125 732.351562 C 157.183594 727.304688 162.292969 718.800781 168.65625 706.832031 C 168.730469 706.699219 168.800781 706.5625 168.871094 706.421875 C 178.453125 687.480469 187.554688 668.625 196.179688 649.855469 C 195.929688 680.140625 196.371094 700.417969 197.503906 710.6875 C 197.835938 713.683594 198.761719 716.582031 200.234375 719.214844 C 207.597656 732.40625 217.953125 735.621094 231.296875 728.859375 C 231.851562 728.582031 232.414062 728.28125 232.976562 727.96875 C 234.851562 726.921875 236.730469 725.585938 238.617188 723.957031 C 241.445312 721.519531 244.835938 717.921875 248.789062 713.164062 C 249.390625 712.441406 249.945312 711.679688 250.449219 710.886719 L 264.867188 688.300781 L 264.867188 688.296875 C 265.660156 692.085938 266.488281 696.148438 267.359375 700.488281 C 269.808594 712.71875 281.710938 720.644531 293.941406 718.191406 C 296.003906 717.777344 297.9375 717.097656 299.726562 716.195312 C 308.550781 711.722656 313.6875 701.777344 311.652344 691.609375 C 305.355469 660.183594 300.285156 640.339844 296.449219 632.082031 C 294.757812 628.4375 292.714844 625.4375 290.320312 623.074219 C 281.890625 614.757812 273.53125 612.699219 265.242188 616.898438 C 263.585938 617.738281 261.929688 618.832031 260.273438 620.171875 L 260.273438 620.175781 C 256.316406 622.417969 252.75 625.402344 249.574219 629.132812 C 248.289062 630.640625 247.074219 632.265625 245.933594 634.007812 L 245.9375 634.007812 C 245.886719 634.082031 245.835938 634.15625 245.789062 634.234375 L 241.433594 641.054688 C 241.5625 631.117188 241.753906 620.132812 242.011719 608.101562 C 242.015625 607.832031 242.015625 607.566406 242.015625 607.296875 C 241.867188 597.011719 239.339844 580.703125 234.433594 558.367188 C 232.503906 549.59375 225.558594 542.796875 216.742188 541.0625 C 211.691406 540.066406 206.574219 540.839844 202.164062 543.074219 C 198.878906 544.738281 195.988281 547.210938 193.804688 550.363281 C 188.242188 558.386719 183.691406 566.121094 180.140625 573.554688 C 179.957031 573.933594 179.789062 574.320312 179.628906 574.707031 C 178.652344 577.085938 177.667969 579.464844 176.675781 581.847656 L 187.070312 518.609375 C 187.125 518.269531 187.175781 517.933594 187.214844 517.597656 L 193.007812 468.601562 C 193.917969 460.878906 190.796875 453.234375 184.742188 448.359375 C 178.683594 443.484375 170.546875 442.070312 163.199219 444.609375 C 162.191406 444.957031 161.199219 445.378906 160.226562 445.871094 C 157.132812 447.4375 154.230469 449.730469 151.515625 452.746094 C 147.664062 457.023438 142.054688 465.304688 134.683594 477.585938 C 134.523438 477.851562 134.371094 478.121094 134.222656 478.394531 C 120.371094 503.792969 108.765625 525.285156 99.398438 542.875 L 101.1875 492.027344 C 101.300781 488.800781 100.722656 485.585938 99.484375 482.605469 C 98.050781 479.136719 95.90625 476.191406 93.050781 473.777344 C 85.125 467.066406 76.632812 466.007812 67.570312 470.597656 Z M 67.570312 470.597656 " fill-opacity="1" fill-rule="nonzero"/></g></g></g><g clip-path="url(#a2899c83a5)"><g clip-path="url(#7483988a8a)"><g clip-path="url(#73a84311eb)"><path fill="#7cc8aa" d="M 74.183594 596.390625 C 70.78125 598.113281 67.78125 600.714844 65.550781 604.097656 C 65.480469 604.199219 65.382812 604.324219 65.269531 604.480469 C 64.648438 605.300781 64.085938 606.164062 63.582031 607.058594 L 62.804688 608.445312 L 62.039062 609.554688 C 61.542969 610.269531 61.085938 611.011719 60.675781 611.78125 L 59.253906 614.441406 C 52.65625 624.246094 54.730469 637.621094 64.226562 644.925781 C 71.351562 650.40625 80.707031 650.980469 88.226562 647.171875 C 91.140625 645.695312 93.777344 643.5625 95.902344 640.800781 C 96.652344 639.828125 97.378906 638.746094 98.085938 637.554688 C 98.261719 637.261719 98.429688 636.960938 98.59375 636.660156 L 99.898438 634.21875 L 100.539062 633.296875 C 100.949219 632.703125 101.335938 632.089844 101.6875 631.457031 L 102.296875 630.371094 C 102.34375 630.304688 102.390625 630.238281 102.433594 630.175781 C 102.980469 629.414062 103.449219 628.699219 103.84375 628.03125 C 110.199219 617.296875 106.648438 603.445312 95.914062 597.09375 C 89.019531 593.011719 80.839844 593.019531 74.183594 596.390625 Z M 74.183594 596.390625 " fill-opacity="1" fill-rule="nonzero"/></g></g></g><g clip-path="url(#4c0f1e6009)"><g clip-path="url(#7ee86efcc5)"><g clip-path="url(#1dd25071b7)"><path fill="#7cc8aa" d="M 301.5625 654.359375 Z M 296.445312 677.363281 C 295.773438 678.058594 295.101562 678.707031 294.429688 679.308594 L 294.425781 679.308594 C 293.363281 680.082031 292.207031 680.785156 290.949219 681.421875 C 290.578125 681.613281 290.195312 681.792969 289.804688 681.96875 L 289.808594 681.96875 C 290.09375 681.839844 290.378906 681.703125 290.65625 681.5625 C 292.800781 680.476562 294.753906 679.058594 296.441406 677.363281 Z M 266.148438 678.300781 C 273.261719 684.625 283.308594 685.644531 291.363281 681.566406 C 291.652344 681.417969 291.941406 681.265625 292.222656 681.105469 L 292.226562 681.105469 C 291.089844 681.945312 289.953125 682.652344 288.808594 683.234375 C 281.449219 686.960938 273.898438 685.316406 266.144531 678.300781 Z M 272.433594 639.289062 C 270.308594 640.363281 268.203125 641.875 266.117188 643.816406 L 266.113281 643.816406 C 261.296875 647.519531 258.558594 652.761719 257.902344 659.554688 C 257.835938 660.222656 257.800781 660.890625 257.796875 661.558594 C 257.777344 663.976562 258.125 666.394531 258.84375 668.808594 C 259.15625 669.859375 259.558594 670.976562 260.058594 672.164062 C 260.1875 672.46875 260.324219 672.789062 260.472656 673.121094 C 260.597656 673.398438 260.730469 673.6875 260.875 673.992188 L 260.878906 673.996094 C 260.972656 674.191406 261.089844 674.429688 261.234375 674.71875 C 261.257812 674.769531 261.285156 674.820312 261.308594 674.871094 L 262.492188 677.210938 C 267.589844 688.453125 280.792969 693.53125 292.128906 688.558594 C 292.523438 688.386719 292.90625 688.203125 293.28125 688.011719 C 303.898438 682.632812 308.582031 669.832031 303.742188 658.804688 C 303.675781 658.648438 303.601562 658.488281 303.527344 658.324219 L 303.527344 658.328125 C 302.839844 653.324219 300.476562 648.519531 296.476562 644.824219 C 288.21875 637.199219 280.203125 635.351562 272.433594 639.289062 Z M 272.433594 639.289062 " fill-opacity="1" fill-rule="nonzero"/></g></g></g><g clip-path="url(#8395f68fc3)"><g clip-path="url(#5447effec0)"><g clip-path="url(#19751a76e7)"><path fill="#5dbbff" d="M 1293.957031 230.652344 C 1293.191406 232.992188 1292.214844 235.238281 1291.027344 237.390625 C 1289.84375 239.546875 1288.464844 241.574219 1286.902344 243.472656 C 1285.335938 245.371094 1283.609375 247.105469 1281.71875 248.683594 C 1279.828125 250.257812 1277.808594 251.644531 1275.660156 252.839844 C 1265.269531 258.898438 1255.375 265.671875 1245.96875 273.164062 C 1236.566406 280.660156 1227.75 288.792969 1219.527344 297.570312 C 1211.304688 306.34375 1203.757812 315.664062 1196.890625 325.535156 C 1190.023438 335.40625 1183.902344 345.722656 1178.53125 356.480469 C 1175.4375 361.996094 1171.285156 366.550781 1166.078125 370.140625 C 1165.75 370.445312 1165.410156 370.742188 1165.0625 371.023438 C 1164.71875 371.308594 1164.363281 371.582031 1163.996094 371.84375 C 1163.632812 372.105469 1163.261719 372.355469 1162.882812 372.597656 C 1162.503906 372.835938 1162.117188 373.0625 1161.722656 373.277344 C 1161.328125 373.492188 1160.929688 373.699219 1160.523438 373.886719 C 1160.117188 374.078125 1159.707031 374.257812 1159.289062 374.421875 C 1158.871094 374.589844 1158.449219 374.742188 1158.023438 374.882812 C 1157.597656 375.019531 1157.167969 375.148438 1156.734375 375.261719 C 1156.300781 375.375 1155.863281 375.472656 1155.421875 375.5625 C 1154.984375 375.648438 1154.539062 375.71875 1154.097656 375.78125 C 1153.652344 375.839844 1153.207031 375.882812 1152.757812 375.917969 C 1152.308594 375.949219 1151.863281 375.964844 1151.414062 375.972656 C 1150.964844 375.976562 1150.515625 375.964844 1150.070312 375.941406 C 1149.621094 375.917969 1149.175781 375.882812 1148.726562 375.832031 C 1148.28125 375.78125 1147.839844 375.71875 1147.398438 375.640625 C 1146.953125 375.5625 1146.515625 375.46875 1146.078125 375.367188 C 1145.644531 375.261719 1145.210938 375.144531 1144.78125 375.011719 C 1144.351562 374.878906 1143.929688 374.734375 1143.507812 374.578125 C 1143.089844 374.421875 1142.675781 374.25 1142.265625 374.066406 C 1141.855469 373.882812 1141.449219 373.6875 1141.054688 373.480469 C 1140.65625 373.273438 1140.265625 373.054688 1139.882812 372.820312 C 1139.496094 372.589844 1139.121094 372.347656 1138.75 372.09375 C 1138.382812 371.835938 1138.019531 371.570312 1137.667969 371.292969 C 1137.316406 371.015625 1136.972656 370.730469 1136.636719 370.429688 C 1136.300781 370.132812 1135.976562 369.824219 1135.660156 369.507812 C 1135.34375 369.1875 1135.035156 368.859375 1134.742188 368.523438 C 1134.445312 368.1875 1134.160156 367.839844 1133.882812 367.488281 C 1133.609375 367.132812 1133.347656 366.769531 1133.09375 366.398438 C 1132.839844 366.027344 1132.601562 365.648438 1132.371094 365.265625 C 1132.140625 364.878906 1131.925781 364.484375 1131.71875 364.085938 C 1131.515625 363.6875 1131.320312 363.285156 1131.140625 362.871094 C 1130.960938 362.460938 1130.792969 362.046875 1130.636719 361.625 C 1127.148438 354.476562 1125.785156 346.363281 1122.753906 338.972656 C 1108.617188 304.507812 1090.046875 273.84375 1054.171875 257.382812 C 1046.148438 253.445312 1038.820312 248.476562 1032.191406 242.480469 C 1009.664062 223.023438 1012.042969 200.875 1038.136719 187.089844 C 1050.695312 180.472656 1063.929688 175.054688 1076.765625 168.902344 C 1083.984375 165.449219 1091.015625 161.605469 1098.136719 157.933594 C 1101.726562 156.160156 1105.222656 154.222656 1108.632812 152.121094 C 1112.042969 150.019531 1115.347656 147.765625 1118.546875 145.359375 C 1121.746094 142.949219 1124.828125 140.398438 1127.792969 137.703125 C 1130.753906 135.007812 1133.585938 132.183594 1136.285156 129.222656 C 1138.984375 126.265625 1141.542969 123.191406 1143.957031 119.992188 C 1146.371094 116.796875 1148.628906 113.496094 1150.738281 110.09375 C 1152.84375 106.6875 1154.789062 103.191406 1156.570312 99.601562 C 1158.351562 96.015625 1159.960938 92.355469 1161.402344 88.617188 C 1163.839844 80.910156 1167.601562 73.914062 1172.691406 67.632812 C 1186.183594 52.925781 1203.207031 55.21875 1210.082031 74.140625 C 1214.722656 87.644531 1217.972656 101.472656 1219.828125 115.632812 C 1220.257812 118.828125 1220.859375 121.992188 1221.636719 125.125 C 1222.414062 128.253906 1223.359375 131.332031 1224.476562 134.359375 C 1225.589844 137.386719 1226.867188 140.34375 1228.308594 143.230469 C 1229.75 146.117188 1231.34375 148.914062 1233.089844 151.625 C 1234.835938 154.335938 1236.730469 156.945312 1238.761719 159.449219 C 1240.796875 161.953125 1242.960938 164.335938 1245.257812 166.601562 C 1247.554688 168.867188 1249.96875 171 1252.5 173 C 1255.03125 175 1257.664062 176.855469 1260.398438 178.566406 C 1269.304688 184.484375 1277.511719 191.25 1285.019531 198.863281 C 1286.097656 199.839844 1287.101562 200.886719 1288.03125 202 C 1288.960938 203.117188 1289.808594 204.292969 1290.574219 205.527344 C 1291.339844 206.765625 1292.015625 208.046875 1292.601562 209.378906 C 1293.183594 210.707031 1293.675781 212.070312 1294.066406 213.472656 C 1294.460938 214.871094 1294.753906 216.289062 1294.949219 217.730469 C 1295.140625 219.167969 1295.234375 220.617188 1295.226562 222.070312 C 1295.214844 223.523438 1295.105469 224.96875 1294.890625 226.40625 C 1294.679688 227.84375 1294.367188 229.257812 1293.957031 230.652344 Z M 1293.957031 230.652344 " fill-opacity="1" fill-rule="nonzero"/></g></g></g></svg>