<svg width="567" height="859" viewBox="0 0 567 859" fill="none" xmlns="http://www.w3.org/2000/svg">
<path d="M482 240.5C505.221 415.783 388 494 242 494C67 494 13.2908 419.004 12.5 240.5C11.8992 104.89 98.4868 -0.271983 242 1C374.548 1 482 108.228 482 240.5Z" fill="#D9D9D9"/>
<ellipse cx="479.061" cy="393.351" rx="28.7345" ry="36.2531" transform="rotate(31.1562 479.061 393.351)" fill="#D9D9D9"/>
<ellipse cx="521" cy="328.332" rx="45.3734" ry="45.5256" transform="rotate(41.2002 521 328.332)" fill="#D9D9D9"/>
<path d="M443.321 414.029C440.006 415.58 436.523 412.231 437.939 408.856L478.355 312.577C479.442 309.987 482.789 309.295 484.814 311.241L538.958 363.282C540.982 365.228 540.425 368.601 537.881 369.791L443.321 414.029Z" fill="#D9D9D9"/>
<path d="M536.989 366.942C513.184 376.941 503.286 397.217 501.293 402.042M509.413 386.276L504.578 399.358" stroke="#D9D9D9" stroke-width="5"/>
<path d="M537.35 367.481C529.017 367.25 497.485 387.275 496.808 411.641" stroke="#D9D9D9" stroke-width="5"/>
<rect x="208" y="456" width="67" height="98" rx="20" fill="#D9D9D9"/>
<path d="M482 736.5C482 864.354 374.101 858 241 858C107.899 858 0 864.354 0 736.5C0 608.646 107.899 505 241 505C374.101 505 482 608.646 482 736.5Z" fill="#D9D9D9"/>
<ellipse cx="242.5" cy="459" rx="56.5" ry="38" fill="#D9D9D9"/>
</svg>
