<svg width="546" height="858" viewBox="0 0 546 858" fill="none" xmlns="http://www.w3.org/2000/svg">
<path d="M482 239.5C472.1 415.02 364.374 521.925 242 479C122.995 524.099 12.5 420 12.5 239.5C12.5 104.5 109.452 0 242 0C374.548 0 482 107.228 482 239.5Z" fill="#D9D9D9"/>
<ellipse cx="458.061" cy="400.351" rx="28.7345" ry="36.2531" transform="rotate(31.1562 458.061 400.351)" fill="#D9D9D9"/>
<ellipse cx="500" cy="335.332" rx="45.3734" ry="45.5256" transform="rotate(41.2002 500 335.332)" fill="#D9D9D9"/>
<path d="M422.321 421.029C419.006 422.58 415.523 419.231 416.939 415.856L457.355 319.577C458.442 316.987 461.789 316.295 463.814 318.241L517.958 370.282C519.982 372.228 519.425 375.601 516.881 376.791L422.321 421.029Z" fill="#D9D9D9"/>
<path d="M515.989 373.942C492.184 383.941 482.286 404.217 480.293 409.042M488.413 393.276L483.578 406.358" stroke="#D9D9D9" stroke-width="5"/>
<path d="M516.35 374.481C508.017 374.25 476.485 394.275 475.808 418.641" stroke="#D9D9D9" stroke-width="5"/>
<rect x="208" y="455" width="67" height="98" rx="20" fill="#D9D9D9"/>
<path d="M482 735.5C482 863.354 374.101 857 241 857C107.899 857 0 863.354 0 735.5C0 607.646 107.899 504 241 504C374.101 504 482 607.646 482 735.5Z" fill="#D9D9D9"/>
<ellipse cx="242.5" cy="458" rx="56.5" ry="38" fill="#D9D9D9"/>
</svg>
