<svg width="544" height="858" viewBox="0 0 544 858" fill="none" xmlns="http://www.w3.org/2000/svg">
<ellipse cx="242" cy="239.5" rx="240" ry="239.5" fill="#D9D9D9"/>
<ellipse cx="462.509" cy="365.58" rx="28.7345" ry="36.2531" transform="rotate(25.4054 462.509 365.58)" fill="#D9D9D9"/>
<ellipse cx="497.722" cy="296.687" rx="45.3734" ry="45.5256" transform="rotate(35.4494 497.722 296.687)" fill="#D9D9D9"/>
<path d="M429.021 389.735C425.879 391.611 422.077 388.628 423.148 385.128L453.714 285.284C454.536 282.598 457.796 281.574 460.006 283.308L519.092 329.661C521.301 331.395 521.084 334.806 518.673 336.245L429.021 389.735Z" fill="#D9D9D9"/>
<path d="M517.913 334C510.931 334.508 486.306 354.347 487.83 375.292" stroke="#D9D9D9" stroke-width="5"/>
<rect x="208" y="455" width="67" height="98" rx="20" fill="#D9D9D9"/>
<path d="M482 735.5C482 863.354 374.101 857 241 857C107.899 857 0 863.354 0 735.5C0 607.646 107.899 504 241 504C374.101 504 482 607.646 482 735.5Z" fill="#D9D9D9"/>
</svg>
